<?xml version="1.0" encoding="utf-8"?>
<!-- Generator: Adobe Illustrator 24.0.2, SVG Export Plug-In . SVG Version: 6.00 Build 0)  -->
<svg version="1.0" id="Layer_1" xmlns="http://www.w3.org/2000/svg" xmlns:xlink="http://www.w3.org/1999/xlink" x="0px" y="0px"
	 viewBox="0 0 300 280" enable-background="new 0 0 300 280" xml:space="preserve">
<g>
	<g>
		<path fill-rule="evenodd" clip-rule="evenodd" fill="#29367D" d="M54.53,147.69c-1.39,0.17-10.57,4.91-11.5,5.73
			c3.23-0.79,5.91-2.21,9.76-2.83c1.13-0.37,3.2-0.59,4.52-0.52c-0.34,1.26-3.22,5.64-4.03,6.7l-0.01,4.39l5.22,0.09l7.01-11.43
			c8.16,0.33,16.79,3.48,23.92,6.71c1.07,0.49,2.6,1.12,3.41,1.68c0.97,0.68,1.35,2.01,2.23,2.98c2.33,0.15,3.05-0.36,4.96,0.74
			c2.22,1.29,1.96,0.88,7.16-2.21c1.26-0.75,2.63-1.36,3.71-2.22c-0.97-1.46-8.98-4.62-10.79-6.07c-0.98-0.23-4.09-1.56-4.74-2.34
			c-1.59-1.92-17.08-28.08-18.56-29.85l-4.91,7.71c-1.72,2.75-3.23,5.16-4.85,7.83c-1.65,2.69-3.21,5.25-4.85,7.84
			C59.24,147.23,60.8,145.35,54.53,147.69L54.53,147.69z M54.53,147.69"/>
		<path fill-rule="evenodd" clip-rule="evenodd" fill="#EE7D22" d="M54.53,147.69c6.27-2.34,4.71-0.46,7.63-5.07
			c1.64-2.59,3.21-5.14,4.85-7.84c1.63-2.67,3.14-5.08,4.85-7.83l4.91-7.71c1.48,1.76,16.98,27.93,18.56,29.85
			c0.65,0.79,3.76,2.12,4.74,2.34l0-32.4l-46.64-0.08l-0.14,29.07C54.53,147.84,53.68,148.03,54.53,147.69L54.53,147.69z
			 M54.53,147.69"/>
	</g>
	<path fill-rule="evenodd" clip-rule="evenodd" fill="#29367D" d="M215.98,157.12c2.22,0.37,7.07,0.11,9.55,0.11
		c3.17-0.01,5.69-0.55,7.44-2.19c1.52-1.44,2.63-4.43,2.17-7.4c-0.43-2.81-2.21-4.48-4.47-5.41c0.73-0.95,2.95-1.88,3.29-5.29
		c0.28-2.79-1.04-5.09-2.42-6.28c-1.71-1.46-4.07-1.74-6.77-1.75c-2.55-0.01-6.32-0.21-8.73,0.06L215.98,157.12z M219.37,153.81
		c5.75,0.3,12.31,1.2,12.36-4.68c0.05-6.06-7.08-5.12-12.35-4.92L219.37,153.81z M219.37,140.8c2.72,0.05,8.6,0.54,10.28-1.25
		c1.02-1.09,1.39-3.35,0.6-5.05c-1.38-2.97-7.15-2.34-10.87-2.19L219.37,140.8z M219.37,140.8"/>
	<path fill-rule="evenodd" clip-rule="evenodd" fill="#29367D" d="M197.09,138.81c-1.14-0.76-1.92-2.13-4.05-2.44
		c-9.85-1.44-11.56,15.28-4.79,20.08c5.1,3.61,8.43-1.01,9.06-1.5l0.03,2.26l2.82,0.02c0.28-3.15,0.41-26.17-0.08-28.32l-2.87,0.01
		L197.09,138.81z M191.02,139.41c-5.97,2.06-4.43,17.75,2.88,15.14C199.58,152.53,198.23,136.92,191.02,139.41L191.02,139.41z
		 M191.02,139.41"/>
	<path fill-rule="evenodd" clip-rule="evenodd" fill="#29367D" d="M115.63,157.15l3.56,0.08l2.8-8.57l10.64,0l2.99,8.56l3.76-0.02
		l-10.35-28.28h-3.52L115.63,157.15z M123.13,145.6h8.33l-4.22-13.05L123.13,145.6z M123.13,145.6"/>
	<path fill-rule="evenodd" clip-rule="evenodd" fill="#29367D" d="M242.06,143.03c0.65-2.7,1.78-3.96,5.04-3.85
		c3.2,0.1,4.34,1.62,4.13,4.87c-2.88,2.32-13.46-0.2-12.77,8.38c0.24,3.03,2.23,4.9,5.11,5.21c4.67,0.52,6.21-1.86,7.84-2.69
		l0.73,2.29l3.14-0.02c-0.36-2.04-0.73-2.56-0.79-5.05c-0.16-6.13,1.08-12.82-2.6-14.94c-3.64-2.09-11.62-1.27-12.74,4.47
		C239,142.48,238.32,142.62,242.06,143.03L242.06,143.03z M251.27,147.07c-3.93,0.85-8.66,1.12-9.34,3.73
		c-1.09,4.13,4.19,5.35,7.27,2.97C251.08,152.29,251.31,150.21,251.27,147.07L251.27,147.07z M251.27,147.07"/>
	<path fill-rule="evenodd" clip-rule="evenodd" fill="#29367D" d="M181.08,151.09l-2.95-0.43c-2.83,7.7-11.04,3.61-10.27-2.78h13.56
		c1.64-13.84-15.3-15.88-16.81-3.07c-0.71,6,1.2,10.98,5.79,12.47c2.5,0.81,5.5,0.46,7.43-0.76c1.36-0.86,2.47-2.32,3.07-3.81
		C181.17,152.04,181.34,151.65,181.08,151.09L181.08,151.09z M167.96,144.98l10.14,0.03C178.27,137.18,168.15,137.27,167.96,144.98
		L167.96,144.98z M167.96,144.98"/>
	<path fill-rule="evenodd" clip-rule="evenodd" fill="#29367D" d="M279.12,157.18l3.13,0.01c0.28-6.15-1.12-8.06,2.17-10.25
		c0.79,0.63,5.18,8.68,6.13,10.23l3.75,0.05l-7.6-12.86l6.84-7.61c-4.3-0.08-3.63-0.77-8.73,5.43c-0.72,0.88-1.37,1.87-2.53,2.55
		l-0.01-15.73l-3.06-0.07L279.12,157.18z M279.12,157.18"/>
	<path fill-rule="evenodd" clip-rule="evenodd" fill="#29367D" d="M262.18,139.39l-0.1-2.64l-2.72-0.01l-0.06,20.44h3.14
		c0.26-7.83-1.75-17.4,4.49-17.87c6.33-0.47,3.68,9.21,4.3,17.89l3.02,0.02c0.27-3.03,0.34-15.3-0.54-17.45
		c-0.88-2.13-2.71-3.41-5.54-3.47C264.8,136.22,263.67,137.81,262.18,139.39L262.18,139.39z M262.18,139.39"/>
	<path fill-rule="evenodd" clip-rule="evenodd" fill="#FEFEFE" d="M69.21,144.25c11.07-0.41,10.91,1.21,16.11,1.52l-8.54-13.7
		c-0.05,0.04-0.12,0.04-0.14,0.12l-1.84,2.76C73.77,136.63,69.46,143.28,69.21,144.25L69.21,144.25z M69.21,144.25"/>
	<path fill-rule="evenodd" clip-rule="evenodd" fill="#29367D" d="M141.76,157.22l3.02-0.02l0.05-28.26l-3-0.04
		c-0.53,2.45-0.13,11.04-0.13,14.13C141.7,147.34,141.37,153.09,141.76,157.22L141.76,157.22z M141.76,157.22"/>
	<path fill-rule="evenodd" clip-rule="evenodd" fill="#29367D" d="M149.62,157.22l3.06-0.01l0.07-28.27l-3.11-0.02L149.62,157.22z
		 M149.62,157.22"/>
	<path fill-rule="evenodd" clip-rule="evenodd" fill="#29367D" d="M157.61,157.12l3.1,0.09l0.04-20.42l-3.11-0.04L157.61,157.12z
		 M157.61,157.12"/>
	<path fill-rule="evenodd" clip-rule="evenodd" fill="#F05423" d="M52.79,150.59c0.94-0.14,0.42,0.02,0.52,1.03
		c0.04,0.35-0.03,1.38-0.03,1.81c-0.01,1.11,0.01,2.23,0.01,3.34c0.8-1.07,3.69-5.44,4.03-6.7
		C55.99,150.01,53.92,150.22,52.79,150.59L52.79,150.59z M52.79,150.59"/>
	<path fill-rule="evenodd" clip-rule="evenodd" fill="#29367D" d="M157.61,132.96l3.11-0.01l-0.01-4.02l-3.08-0.01L157.61,132.96z
		 M157.61,132.96"/>
</g>
</svg>
