<?xml version="1.0" encoding="utf-8"?>
<!-- Generator: Adobe Illustrator 24.0.2, SVG Export Plug-In . SVG Version: 6.00 Build 0)  -->
<svg version="1.0" id="Layer_1" xmlns="http://www.w3.org/2000/svg" xmlns:xlink="http://www.w3.org/1999/xlink" x="0px" y="0px"
	 viewBox="0 0 300 280" enable-background="new 0 0 300 280" xml:space="preserve">
<g>
	<path fill="#26336E" d="M61.55,111.98c13.16,0.07,26.33,0.13,39.49,0.2c0.54,0.01,1.06,0.15,1.57,0.27c2.44,0.59,4.84,1.41,7,2.69
		c2.73,1.57,4.61,4.31,5.72,7.19c0.52,2.64,0.68,5.39,0.19,8.05c-0.33,1.86-1.27,3.55-2.49,4.97c-1.5,1.75-3.31,3.21-5.29,4.38
		c2.56,0.37,5.11,1.06,7.39,2.32c2.4,1.31,4.09,3.6,5.35,5.98c0.06-11.95,0.13-23.9,0.19-35.85c10.03,0.05,20.06,0.12,30.08,0.19
		c1.96-0.07,3.9,0.32,5.82,0.66c3.98,0.78,7.9,1.97,11.53,3.8c2.05,1.02,3.84,2.48,5.49,4.05c1.69,1.64,3.25,3.42,4.66,5.31
		c-0.32,0.42-0.64,0.85-0.94,1.28c-0.42,0.59-0.58,1.32-0.97,1.93c-0.63,1.02-1.1,2.14-1.42,3.29c-0.43,1.55-0.89,3.11-1.03,4.72
		c-0.22,2.09-0.38,4.2-0.29,6.31c0.12,2.04,0.45,4.05,0.93,6.04c0.63,3.02,2.02,5.81,3.62,8.43c-2.28,4.59-6.33,8.29-11.14,10.07
		c-3.55,1.36-7.27,2.23-10.99,2.97c-0.67,0.11-1.34,0.28-2.02,0.32c-11.21,0.1-22.42,0.2-33.62,0.29c0.05-3.15,0.14-6.31,0.19-9.46
		c-1.3,2.63-3.31,4.93-5.78,6.53c-2.04,1.24-4.39,1.84-6.7,2.38c-1.5,0.3-3,0.73-4.54,0.65c-14.04,0-28.08,0-42.12,0
		C61.48,151.95,61.49,131.97,61.55,111.98 M135.3,120.19c-0.05,14.59-0.13,29.17-0.19,43.75c4.9,0,9.79,0,14.69,0
		c0.78,0.01,1.54-0.24,2.3-0.42c2.97-0.82,5.86-2.11,8.24-4.08c1.91-1.56,3.33-3.64,4.36-5.85c0.95-2.05,1.67-4.21,2.1-6.43
		c0.32-3.29,0.38-6.62,0.02-9.91c-0.37-3.3-1.6-6.53-3.61-9.18c-1.41-1.62-3.02-3.08-4.76-4.32c-2.43-1.73-5.27-2.79-8.14-3.54
		c-0.54-0.16-1.1-0.11-1.65-0.11C144.21,120.13,139.76,120.14,135.3,120.19 M75.37,120.08c0.02,5.86,0.07,11.72,0.09,17.58
		c6.26-0.13,12.53-0.25,18.79-0.4c1.52-0.46,2.95-1.26,4.19-2.25c1.22-0.98,1.97-2.42,2.46-3.88c0.2-1.03,0.18-2.09,0.13-3.13
		c-0.12-1.75-0.56-3.61-1.82-4.91c-1.18-1.22-2.71-2.08-4.31-2.61C88.4,120.33,81.88,120.23,75.37,120.08 M75.66,164.43
		c7.63,0.08,15.26,0.13,22.89,0.2c0.55,0.01,1.08-0.17,1.6-0.32c1.77-0.53,3.49-1.34,4.85-2.61c1-0.93,1.53-2.24,1.89-3.53
		c0.29-1.11,0.53-2.26,0.45-3.41c-0.12-1.96-0.52-4.01-1.7-5.63c-1.27-1.65-3.19-2.65-5.1-3.34c-0.73-0.3-1.54-0.3-2.32-0.32
		c-7.49-0.06-14.98-0.13-22.46-0.19C75.72,151.66,75.7,158.04,75.66,164.43 M231.33,108.06c0.96,0,1.93,0,2.89,0
		c0,0.11,0,0.32,0,0.43c-0.4,0-0.8,0-1.19,0c0,1.16,0,2.32,0,3.48c-0.17,0-0.34,0-0.51,0c0.01-1.16-0.01-2.31,0.01-3.47
		c-0.4-0.01-0.8-0.02-1.2-0.02C231.34,108.38,231.34,108.16,231.33,108.06 M234.55,111.97c0.08-1.31,0.18-2.61,0.27-3.92
		c0.21,0,0.43,0,0.65,0.01c0.36,1.07,0.77,2.12,1.06,3.21c0.31-1.09,0.73-2.15,1.12-3.21c0.21,0,0.43,0,0.65,0
		c0.07,1.31,0.16,2.61,0.24,3.92c-0.17,0-0.33,0-0.5,0c-0.06-1.15-0.14-2.29-0.17-3.44c-0.35,1.15-0.76,2.28-1.2,3.4
		c-0.09,0-0.27,0-0.36,0c-0.4-1.11-0.82-2.23-1.08-3.39c-0.08,1.14-0.12,2.29-0.21,3.43C234.91,111.98,234.67,111.97,234.55,111.97"
		/>
	<path fill="#FCB316" d="M205.44,112.62c0.81-0.06,1.63-0.05,2.45,0.04c3.47,0.24,6.93,0.77,10.27,1.76
		c2.37,0.68,4.69,1.64,6.77,2.98c3.5,2.26,6.49,5.26,8.92,8.63c1.72,2.69,3.16,5.6,3.98,8.7c1,3.89,0.79,7.96,0.35,11.92
		c-0.38,3.07-0.96,6.18-2.35,8.97c-1.16,2.43-2.78,4.62-4.67,6.53c-2.62,2.64-5.61,4.99-9.01,6.55c-4.2,1.85-8.75,2.8-13.3,3.24
		c-3.44,0.02-6.89-0.16-10.31-0.58c-3.66-0.44-7.25-1.62-10.43-3.48c-3.84-2.61-7.51-5.68-9.95-9.69c-1.6-2.61-2.99-5.41-3.62-8.43
		c-0.47-1.98-0.8-4-0.93-6.04c-0.09-2.11,0.07-4.21,0.29-6.31c0.15-1.61,0.6-3.17,1.03-4.72c0.32-1.16,0.79-2.27,1.42-3.29
		c0.39-0.61,0.56-1.33,0.97-1.93c0.3-0.44,0.62-0.86,0.94-1.28c3.38-4.38,7.57-8.29,12.62-10.64
		C195.47,113.55,200.5,112.88,205.44,112.62 M203.26,119.99c-4.26,0.58-8.39,2.68-11.08,6.09c-1.66,2.18-2.67,4.75-3.51,7.33
		c-0.35,1.03-0.49,2.11-0.66,3.18c-0.39,2.68-0.61,5.39-0.47,8.1c0.18,2.84,0.74,5.66,1.6,8.38c1.02,2.43,2.39,4.73,4.13,6.72
		c1.95,2.21,4.63,3.63,7.38,4.59c2.29,0.67,4.69,0.95,7.07,0.81c2.1-0.15,4.13-0.75,6.1-1.46c0.52-0.21,1.07-0.37,1.56-0.67
		c2.17-1.46,4.19-3.22,5.61-5.43c1.14-1.84,1.98-3.85,2.55-5.94c0.52-1.85,0.69-3.77,0.86-5.68c0.27-3.3,0.3-6.64-0.29-9.9
		c-0.31-1.57-0.45-3.18-1.03-4.68c-0.74-2.29-1.68-4.58-3.29-6.41c-1.47-1.73-3.54-2.79-5.58-3.68c-1.54-0.68-3.18-1.1-4.86-1.25
		C207.32,119.9,205.28,119.77,203.26,119.99L203.26,119.99z"/>
</g>
</svg>
